<svg version="1.2" xmlns="http://www.w3.org/2000/svg" viewBox="0 0 525 475" width="525" height="475">
	<title>logo-palacio-livraria</title>
	<style>
		.s0 { fill: #8c031c } 
		.s1 { fill: #d9a441 } 
		.s2 { fill: #ffffff } 
		.s3 { fill: #f2e205 } 
		.s4 { fill: #1f122f } 
	</style>
	<g id="BACKGROUND">
		<path id="&lt;Path&gt;" class="s0" d="m1259 691h-500v-500h500z"/>
	</g>
	<g id="OBJECTS">
		<g id="&lt;Group&gt;">
			<g id="&lt;Group&gt;">
				<path id="&lt;Path&gt;" class="s1" d="m302.4 45h-79.9v-33.5h79.9z"/>
				<rect id="&lt;Path&gt;" class="s1" x="137.1" y="151.3" width="10.8" height="50.8" rx="4.8"></rect>
				<path id="&lt;Compound Path&gt;" fill-rule="evenodd" class="s1" d="m415.9 106.9v136.8h-113.5v-51.3c0-22.1-17.9-39.9-39.9-39.9-22.1 0-40 17.8-40 39.9v51.3h-113.5v-136.8h62.1v-49.4h182.7v49.4zm-288.7 14.7v5.6h30.6v-5.6zm30.5 13.9v-4.7h-30.5v4.7zm-30.6 3.6v74.9h30.6v-74.9zm30.5 92.8v-10.7h-30.5v10.7zm75-140.8c0-6.7-5.4-12.1-12-12.1-6.7 0-12.1 5.4-12.1 12.1v29.8h24.1zm41.7 0c0-6.7-5.3-12-12-12-6.6 0-12 5.3-12 12v29.8h24zm41.8 0c0-6.6-5.4-12-12-12-6.7 0-12 5.4-12 12v29.8h24zm51 30.6v5.5h30.5v-5.5zm30.6 13.8v-4.7h-30.6v4.7zm-30.5 3.6v74.9h30.5v-74.9zm30.6 92.9v-10.8h-30.6v10.8z"/>
				<rect id="&lt;Path&gt;" class="s1" x="377.1" y="151.3" width="10.8" height="50.8" rx="4.8"></rect>
			</g>
		</g>
		<g id="&lt;Group&gt;">
			<g id="&lt;Group&gt;">
				<path id="&lt;Path&gt;" class="s1" d="m1030.8-163.8h-42.6v-17.9h42.6z"/>
				<rect id="&lt;Path&gt;" class="s1" x="942.6" y="-107.1" width="5.7" height="27.1" rx="2.6"></rect>
				<path id="&lt;Compound Path&gt;" fill-rule="evenodd" class="s1" d="m1091.3-130.8v72.9h-60.5v-27.3c0-11.8-9.5-21.3-21.3-21.3-11.8 0-21.3 9.5-21.3 21.3v27.3h-60.5v-72.9h33.1v-26.4h97.4v26.4zm-153.9 7.9v2.9h16.3v-2.9zm16.3 7.3v-2.5h-16.3v2.5zm-16.3 1.9v40h16.3v-40zm16.3 49.6v-5.8h-16.3v5.8zm40-75.1c0-3.6-2.9-6.4-6.4-6.4-3.6 0-6.4 2.8-6.4 6.4v15.9h12.8zm22.2 0c0-3.6-2.8-6.5-6.4-6.5-3.5 0-6.4 2.9-6.4 6.5v15.9h12.8zm22.3 0c0-3.6-2.9-6.5-6.4-6.5-3.5 0-6.4 2.9-6.4 6.5v15.9h12.8zm27.2 16.3v2.9h16.3v-2.9zm16.2 7.3v-2.5h-16.2v2.5zm-16.3 1.9v40h16.3v-40zm16.2 49.6v-5.8h-16.2v5.8z"/>
				<rect id="&lt;Path&gt;" class="s1" x="1070.6" y="-107.1" width="5.7" height="27.1" rx="2.6"></rect>
			</g>
		</g>
		<g id="&lt;Group&gt;">
			<path id="&lt;Path&gt;" class="s1" d="m1030.8 382.4h-42.6v-17.9h42.6z"/>
			<rect id="&lt;Path&gt;" class="s1" x="942.6" y="439.1" width="5.7" height="27.1" rx="2.6"></rect>
			<path id="&lt;Compound Path&gt;" fill-rule="evenodd" class="s1" d="m1091.3 415.4v72.9h-60.5v-27.3c0-11.8-9.5-21.3-21.3-21.3-11.8 0-21.3 9.5-21.3 21.3v27.3h-60.5v-72.9h33.1v-26.4h97.4v26.4zm-153.9 7.9v2.9h16.3v-2.9zm16.3 7.3v-2.5h-16.3v2.5zm-16.3 1.9v40h16.3v-40zm16.3 49.6v-5.8h-16.3v5.8zm40-75.1c0-3.6-2.9-6.5-6.4-6.5-3.6 0-6.4 2.9-6.4 6.5v15.9h12.8zm22.2 0c0-3.6-2.8-6.5-6.4-6.5-3.5 0-6.4 2.9-6.4 6.5v15.8h12.8zm22.3 0c0-3.5-2.9-6.4-6.4-6.4-3.5 0-6.4 2.9-6.4 6.4v15.9h12.8zm27.2 16.3v3h16.3v-3zm16.2 7.4v-2.5h-16.2v2.5zm-16.3 1.9v40h16.3v-40zm16.2 49.6v-5.8h-16.2v5.8z"/>
			<rect id="&lt;Path&gt;" class="s1" x="1070.6" y="439.1" width="5.7" height="27.1" rx="2.6"></rect>
		</g>
	</g>
	<g id="TEXTS">
		<g id="&lt;Group&gt;">
			<g id="&lt;Group&gt;">
				<g id="&lt;Group&gt;">
					<path id="PALﾃ，IO" class="s2" aria-label="PALﾃ，IO"  d="m48 302.4q7.5 0 13.3 3.1 5.7 3.1 8.8 8.9 3.3 5.6 3.3 12.9 0 7.3-3.4 12.8-3.2 5.5-9.2 8.6-5.8 3-13.5 3h-16.4q-0.5 0-0.5 0.6v29.3q0 0.6-0.5 1.1-0.3 0.3-0.9 0.3h-13.5q-0.5 0-1-0.3-0.4-0.5-0.4-1.1v-77.8q0-0.6 0.4-0.9 0.5-0.5 1-0.5zm-2.4 36.3q5.3 0 8.5-3 3.2-3.1 3.2-8 0-5.1-3.2-8.2-3.2-3.1-8.5-3.1h-14.6q-0.6 0-0.6 0.6v21.2q0 0.5 0.6 0.5zm91.8 44.3q-1.2 0-1.5-1.1l-3.5-11.3q-0.2-0.5-0.6-0.5h-28.2q-0.4 0-0.6 0.5l-3.3 11.3q-0.4 1.1-1.5 1.1h-14.6q-0.7 0-1.1-0.3-0.3-0.5-0.1-1.3l24.8-77.7q0.4-1.2 1.5-1.2h18.1q1.1 0 1.5 1.2l24.8 77.7q0.1 0.2 0.1 0.6 0 1-1.2 1zm-30.3-26.1q-0.1 0.7 0.5 0.7h20.2q0.7 0 0.5-0.7l-10.4-34.2q-0.1-0.4-0.3-0.3-0.2 0-0.4 0.3zm66.9 26.1q-0.6 0-1.1-0.3-0.3-0.5-0.3-1v-77.8q0-0.5 0.3-0.9 0.5-0.4 1.1-0.4h13.4q0.6 0 0.9 0.4 0.5 0.4 0.5 0.9v64.7q0 0.5 0.6 0.5h37.6q0.5 0 0.9 0.5 0.4 0.3 0.4 0.9v11.2q0 0.5-0.4 1-0.4 0.3-0.9 0.3zm126.7 0q-1.2 0-1.5-1.1l-3.5-11.3q-0.2-0.4-0.5-0.4h-28.3q-0.4 0-0.6 0.4l-3.3 11.3q-0.4 1.1-1.5 1.1h-14.6q-0.7 0-1.1-0.3-0.3-0.5-0.1-1.3l24.8-77.7q0.4-1.1 1.5-1.1h18.1q1.1 0 1.5 1.1l24.8 77.7q0.1 0.3 0.1 0.6 0 1-1.2 1zm-30.3-26.1q-0.1 0.7 0.5 0.7h20.2q0.7 0 0.5-0.7l-10.4-34.1q-0.1-0.5-0.3-0.3-0.2 0-0.3 0.3zm4-61.5q-0.8 0-1.1-0.5-0.2-0.4 0.2-1.1l6.1-11.6q0.4-1.1 1.7-1.1h11.6q0.8 0 1 0.6 0.4 0.5-0.1 1.1l-8.2 11.7q-0.5 0.9-1.6 0.9zm87.3 88.5q-9 0-15.7-3.4-6.8-3.6-10.5-9.9-3.7-6.3-3.7-14.6v-26.6q0-8.3 3.7-14.6 3.7-6.3 10.5-9.8 6.7-3.4 15.7-3.4 8.9 0 15.5 3.3 6.8 3.2 10.5 9.3 3.8 6 3.8 14 0 1-1.4 1.2l-13.4 0.8h-0.3q-1.1 0-1.1-1.2 0-6.1-3.8-9.8-3.7-3.7-9.8-3.7-6.2 0-10 3.7-3.7 3.7-3.7 9.8v27.7q0 5.9 3.7 9.6 3.8 3.7 10 3.7 6.1 0 9.8-3.7 3.8-3.7 3.8-9.6 0-1.3 1.4-1.3l13.4 0.6q0.6 0 0.9 0.3 0.5 0.4 0.5 0.8 0 8-3.8 14.1-3.7 6-10.5 9.4-6.6 3.3-15.5 3.3zm52.2-0.9q-0.6 0-1-0.3-0.4-0.5-0.4-1.1v-77.7q0-0.6 0.4-0.9 0.4-0.5 1-0.5h13.5q0.5 0 0.9 0.5 0.4 0.3 0.4 0.9v77.7q0 0.6-0.4 1.1-0.4 0.3-0.9 0.3zm66.7 1.3q-9 0-15.9-3.7-6.8-3.7-10.6-10.2-3.8-6.7-3.8-15.3v-24.6q0-8.6 3.8-15.1 3.8-6.6 10.6-10.1 6.9-3.7 15.9-3.7 9 0 15.8 3.7 6.9 3.5 10.7 10.1 3.8 6.5 3.8 15.1v24.6q0 8.6-3.8 15.3-3.8 6.6-10.7 10.3-6.8 3.6-15.8 3.6zm0-13.9q6.3 0 10.2-4.1 3.9-4 3.9-10.7v-25.3q0-6.6-3.9-10.7-3.8-4.1-10.2-4.1-6.4 0-10.3 4.1-3.8 4.1-3.8 10.7v25.3q0 6.7 3.8 10.7 3.9 4.1 10.3 4.1z"/>
					<path id="LIVRARIA" class="s3" aria-label="LIVRARIA"  d="m141.8 450q-0.4 0-0.4-0.4v-28.6q0-0.4 0.4-0.4h2.1q0.5 0 0.5 0.4v26.2q0 0.2 0.1 0.2h14.9q0.4 0 0.4 0.4v1.8q0 0.4-0.4 0.4zm34.3 0q-0.4 0-0.4-0.4v-28.6q0-0.4 0.4-0.4h2.2q0.4 0 0.4 0.4v28.6q0 0.4-0.4 0.4zm28.1 0q-0.3 0-0.5-0.3l-9.1-28.6-0.1-0.2q0-0.3 0.4-0.3h2.3q0.4 0 0.5 0.3l7.6 24.6q0.1 0.1 0.2 0.1 0 0 0.1-0.1l7.6-24.6q0.2-0.3 0.5-0.3h2.3q0.4 0 0.3 0.5l-9.2 28.6q-0.2 0.3-0.5 0.3zm45.1 0q-0.4 0-0.5-0.3l-6.2-13q0-0.1-0.1-0.1h-7.2q-0.2 0-0.2 0.1v12.9q0 0.4-0.4 0.4h-2.1q-0.4 0-0.4-0.4v-28.6q0-0.4 0.4-0.4h10.9q3.6 0 5.8 2.3 2.2 2.2 2.2 5.8 0 2.9-1.6 5-1.6 2.1-4.3 2.7-0.2 0-0.1 0.2l6.3 12.9q0.1 0.1 0.1 0.2 0 0.3-0.4 0.3zm-14-26.8q-0.1 0-0.1 0.2v10.6q0 0.2 0.1 0.2h7.9q2.4 0 3.9-1.5 1.5-1.6 1.5-4 0-2.4-1.5-3.9-1.5-1.6-3.9-1.6zm52 26.8q-0.4 0-0.5-0.3l-1.7-5.3q0-0.2-0.2-0.2h-12.5q-0.1 0-0.2 0.2l-1.7 5.3q-0.1 0.3-0.5 0.3h-2.2q-0.5 0-0.4-0.5l9.3-28.6q0.1-0.3 0.5-0.3h2.9q0.3 0 0.5 0.3l9.3 28.6v0.2q0 0.3-0.3 0.3zm-14.3-8.4q0 0.1 0 0.2 0.1 0 0.2 0h10.8q0.1 0 0.2 0 0-0.1 0-0.2l-5.5-17.1q0-0.1-0.1-0.1-0.1 0-0.1 0.1zm49.9 8.4q-0.4 0-0.5-0.3l-6.2-13.1q0-0.1-0.1-0.1h-7.2q-0.1 0-0.1 0.2v12.8q0 0.5-0.5 0.5h-2.1q-0.4 0-0.4-0.5v-28.5q0-0.4 0.4-0.4h10.9q3.6 0 5.8 2.2 2.2 2.3 2.2 5.9 0 2.9-1.5 5-1.6 2-4.4 2.6-0.1 0.1-0.1 0.2l6.3 13q0.1 0 0.1 0.2 0 0.3-0.4 0.3zm-13.9-26.8q-0.2 0-0.2 0.1v10.7q0 0.1 0.2 0.1h7.8q2.4 0 3.9-1.5 1.5-1.5 1.5-3.9 0-2.5-1.5-4-1.5-1.5-3.9-1.5zm33.4 26.8q-0.4 0-0.4-0.5v-28.5q0-0.4 0.4-0.4h2.2q0.4 0 0.4 0.4v28.5q0 0.5-0.4 0.5zm38.4 0q-0.4 0-0.5-0.4l-1.7-5.3q0-0.1-0.2-0.1h-12.5q-0.2 0-0.2 0.1l-1.7 5.3q-0.1 0.4-0.5 0.4h-2.3q-0.4 0-0.3-0.5l9.3-28.6q0.1-0.3 0.5-0.3h2.9q0.3 0 0.5 0.3l9.3 28.6v0.2q0 0.3-0.4 0.3zm-14.2-8.4q0 0 0 0.1 0.1 0.1 0.2 0.1h10.8q0.1 0 0.1-0.1 0.1-0.1 0.1-0.1l-5.5-17.2q0-0.1-0.1-0.1-0.1 0-0.1 0.1z"/>
				</g>
			</g>
		</g>
		<g id="&lt;Group&gt;">
			<g id="&lt;Group&gt;">
				<g id="&lt;Group&gt;">
					<path id="PALﾃ，IO" class="s4" aria-label="PALﾃ，IO"  d="m895.1-26q4.1 0 7.1 1.7 3.1 1.6 4.8 4.7 1.7 3 1.7 6.9 0 3.9-1.8 6.8-1.7 3-4.9 4.6-3.1 1.6-7.2 1.6h-8.7q-0.3 0-0.3 0.3v15.7q0 0.3-0.3 0.5-0.2 0.2-0.5 0.2h-7.2q-0.3 0-0.5-0.2-0.2-0.2-0.2-0.5v-41.5q0-0.3 0.2-0.5 0.2-0.3 0.5-0.3zm-1.2 19.4q2.8 0 4.5-1.6 1.7-1.7 1.7-4.3 0-2.7-1.7-4.3-1.7-1.7-4.5-1.7h-7.8q-0.3 0-0.3 0.3v11.3q0 0.3 0.3 0.3zm48.9 23.6q-0.6 0-0.8-0.6l-1.8-6q-0.2-0.3-0.4-0.3h-15q-0.2 0-0.3 0.3l-1.8 6q-0.2 0.6-0.8 0.6h-7.8q-0.4 0-0.6-0.2-0.1-0.2 0-0.7l13.2-41.4q0.2-0.6 0.8-0.6h9.7q0.6 0 0.7 0.6l13.3 41.4q0.1 0.2 0.1 0.3 0 0.6-0.7 0.6zm-16.1-13.9q-0.1 0.4 0.2 0.4h10.8q0.4 0 0.2-0.4l-5.5-18.2q0-0.3-0.2-0.2-0.1 0-0.2 0.2zm35.7 13.9q-0.3 0-0.6-0.2-0.2-0.2-0.2-0.5v-41.5q0-0.3 0.2-0.5 0.3-0.2 0.6-0.2h7.1q0.3 0 0.5 0.2 0.3 0.2 0.3 0.5v34.5q0 0.3 0.3 0.3h20q0.3 0 0.5 0.2 0.3 0.2 0.3 0.5v6q0 0.3-0.3 0.5-0.2 0.2-0.5 0.2zm67.6 0q-0.6 0-0.8-0.6l-1.8-6q-0.2-0.3-0.3-0.3h-15.1q-0.2 0-0.3 0.3l-1.8 6q-0.2 0.6-0.8 0.6h-7.8q-0.4 0-0.5-0.2-0.2-0.2-0.1-0.7l13.2-41.4q0.2-0.6 0.8-0.6h9.7q0.6 0 0.8 0.6l13.2 41.4q0.1 0.2 0.1 0.3 0 0.6-0.7 0.6zm-16.1-13.9q-0.1 0.3 0.2 0.3h10.8q0.4 0 0.2-0.3l-5.5-18.2q0-0.3-0.2-0.2-0.1 0-0.1 0.2zm2.1-32.8q-0.4 0-0.6-0.3-0.1-0.2 0.1-0.6l3.3-6.2q0.2-0.5 0.9-0.5h6.2q0.4 0 0.5 0.3 0.2 0.2 0 0.6l-4.4 6.2q-0.3 0.5-0.9 0.5zm46.6 47.2q-4.8 0-8.4-1.9-3.6-1.9-5.6-5.2-2-3.4-2-7.8v-14.2q0-4.4 2-7.8 2-3.3 5.6-5.2 3.6-1.8 8.4-1.8 4.7 0 8.3 1.8 3.6 1.7 5.5 4.9 2.1 3.2 2.1 7.4 0 0.6-0.8 0.7l-7.1 0.4h-0.2q-0.6 0-0.6-0.6 0-3.3-2-5.2-2-2-5.2-2-3.3 0-5.4 2-1.9 1.9-1.9 5.2v14.7q0 3.2 1.9 5.2 2.1 2 5.4 2 3.2 0 5.2-2 2-2 2-5.2 0-0.6 0.8-0.6l7.1 0.3q0.3 0 0.5 0.2 0.3 0.1 0.3 0.4 0 4.2-2.1 7.5-1.9 3.2-5.5 5-3.6 1.8-8.3 1.8zm27.8-0.5q-0.3 0-0.5-0.2-0.2-0.2-0.2-0.6v-41.4q0-0.3 0.2-0.5 0.2-0.2 0.5-0.2h7.2q0.3 0 0.5 0.2 0.2 0.2 0.2 0.5v41.4q0 0.4-0.2 0.6-0.2 0.2-0.5 0.2zm35.5 0.7q-4.7 0-8.4-2-3.6-2-5.7-5.5-2-3.5-2-8.1v-13.1q0-4.6 2-8.1 2.1-3.5 5.7-5.4 3.7-1.9 8.4-1.9 4.9 0 8.5 1.9 3.7 1.9 5.7 5.4 2 3.5 2 8.1v13.1q0 4.6-2 8.1-2 3.6-5.7 5.6-3.6 1.9-8.5 1.9zm0-7.5q3.4 0 5.5-2.1 2.1-2.2 2.1-5.7v-13.5q0-3.6-2.1-5.7-2-2.2-5.5-2.2-3.3 0-5.4 2.2-2 2.1-2 5.7v13.5q0 3.5 2 5.7 2.1 2.1 5.4 2.1z"/>
					<path id="LIVRARIA" class="s3" aria-label="LIVRARIA"  d="m945.2 52q-0.3 0-0.3-0.2v-15.3q0-0.2 0.3-0.2h1.1q0.2 0 0.2 0.2v14q0 0.1 0.1 0.1h7.9q0.3 0 0.3 0.2v1q0 0.2-0.3 0.2zm18.4 0q-0.3 0-0.3-0.2v-15.3q0-0.2 0.3-0.2h1.1q0.2 0 0.2 0.2v15.3q0 0.2-0.2 0.2zm15 0q-0.2 0-0.2-0.2l-4.9-15.2-0.1-0.1q0-0.2 0.2-0.2h1.3q0.2 0 0.2 0.2l4.1 13.1q0 0.1 0.1 0.1 0 0 0-0.1l4.1-13.1q0.1-0.2 0.3-0.2h1.2q0.2 0 0.1 0.3l-4.9 15.2q0 0.2-0.2 0.2zm24 0q-0.2 0-0.2-0.2l-3.3-6.9q-0.1-0.1-0.1-0.1h-3.8q-0.1 0-0.1 0.1v6.9q0 0.2-0.2 0.2h-1.2q-0.2 0-0.2-0.2v-15.3q0-0.2 0.2-0.2h5.8q1.9 0 3.1 1.2 1.2 1.2 1.2 3.1 0 1.6-0.8 2.7-0.9 1.1-2.3 1.4-0.1 0.1-0.1 0.1l3.4 6.9q0 0.1 0 0.1 0 0.2-0.2 0.2zm-7.4-14.3q-0.1 0-0.1 0.1v5.7q0 0.1 0.1 0.1h4.1q1.3 0 2.1-0.8 0.8-0.9 0.8-2.2 0-1.3-0.8-2.1-0.8-0.8-2.1-0.8zm27.8 14.3q-0.2 0-0.3-0.2l-0.9-2.8q0-0.1-0.1-0.1h-6.7q-0.1 0-0.1 0.1l-0.9 2.8q0 0.2-0.2 0.2h-1.2q-0.3 0-0.2-0.2l4.9-15.3q0.1-0.2 0.3-0.2h1.5q0.2 0 0.3 0.2l5 15.3q0 0.2-0.2 0.2zm-7.6-4.5q0 0.1 0 0.1 0 0 0.1 0h5.8q0 0 0 0 0.1 0 0-0.1l-2.9-9.1q0-0.1 0-0.1-0.1 0-0.1 0.1zm26.6 4.5q-0.2 0-0.2-0.2l-3.3-6.9q-0.1-0.1-0.1-0.1h-3.8q-0.1 0-0.1 0.1v6.8q0 0.3-0.2 0.3h-1.2q-0.2 0-0.2-0.3v-15.2q0-0.2 0.2-0.2h5.8q1.9 0 3.1 1.2 1.2 1.2 1.2 3.1 0 1.6-0.8 2.7-0.9 1.1-2.3 1.4-0.1 0-0.1 0.1l3.4 6.9q0 0 0 0.1 0 0.2-0.2 0.2zm-7.4-14.3q-0.1 0-0.1 0.1v5.6q0 0.1 0.1 0.1h4.1q1.3 0 2.1-0.8 0.8-0.8 0.8-2.1 0-1.3-0.8-2.1-0.8-0.8-2.1-0.8zm17.9 14.3q-0.3 0-0.3-0.3v-15.2q0-0.2 0.3-0.2h1.1q0.2 0 0.2 0.2v15.2q0 0.3-0.2 0.3zm20.5 0q-0.2 0-0.3-0.2l-0.9-2.8q0-0.1-0.1-0.1h-6.7q0 0-0.1 0.1l-0.9 2.8q0 0.2-0.2 0.2h-1.2q-0.3 0-0.2-0.3l4.9-15.2q0.1-0.2 0.3-0.2h1.5q0.2 0 0.3 0.2l5 15.2v0.1q0 0.2-0.2 0.2zm-7.6-4.5q0 0 0 0.1 0 0 0.1 0h5.8q0 0 0 0 0.1-0.1 0-0.1l-2.9-9.2q0 0 0 0-0.1 0-0.1 0z"/>
				</g>
			</g>
		</g>
	</g>
</svg>